<!DOCTYPE svg PUBLIC "-//W3C//DTD SVG 1.1//EN" "http://www.w3.org/Graphics/SVG/1.1/DTD/svg11.dtd">
<!-- Uploaded to: SVG Repo, www.svgrepo.com, Transformed by: SVG Repo Mixer Tools -->
<svg width="174px" height="174px" viewBox="-6.6 -6.6 43.20 43.20" version="1.1" xmlns="http://www.w3.org/2000/svg" xmlns:xlink="http://www.w3.org/1999/xlink" xmlns:sketch="http://www.bohemiancoding.com/sketch/ns" fill="#000000">
<g id="SVGRepo_bgCarrier" stroke-width="0">
<path transform="translate(-6.6, -6.6), scale(1.35)" d="M16,29.818486601114273C17.891320204272663,29.621058796212797,19.09710340525124,27.5763542812808,20.93222531952095,27.077959444825524C23.167855849837288,26.47079176628203,26.092588258512695,28.19219954895736,27.790609970622405,26.61631290228685C29.41956111971544,25.104528720949816,28.10555748469033,22.247779684771572,28.494431238915965,20.05968680275151C28.831158021828784,18.165011554368593,30.206787502213857,16.440547598462185,29.937717977097464,14.535086810668503C29.669087325915985,12.632733981954935,28.34420182555702,11.030516563480814,27.022525694754677,9.636141822983824C25.82011073311153,8.36758819548277,23.957773496650642,8.006641041276152,22.65022674207495,6.8467481451741286C21.185169071729735,5.5471311500138825,20.582598519648023,3.3985457121328606,18.88671705413551,2.41906402956916C17.08910129193413,1.3808241837012039,14.79609351133361,0.4608293019354457,12.85146970950179,1.1873295947171592C10.83590644914616,1.9403324621041897,10.435086329731954,4.705514213478969,8.85563130796413,6.166620099101539C7.482948525748618,7.43644726388083,5.4171511486811,7.767060052445219,4.202179634107782,9.18852523590127C2.9194580675815978,10.689255109000815,1.9848594062303104,12.542396640216916,1.7324659145130479,14.50042174081791C1.478676862881835,16.469273354108733,1.6497647689169357,18.659849874994762,2.7700591701770882,20.298668355605383C3.892490273717991,21.940612503166868,6.4003855853763,21.970465644412847,7.802971266960919,23.38063782245398C9.117064445256162,24.70183884690191,9.121481083448188,27.006883085538945,10.586971255108061,28.157861619227855C12.087655227219237,29.33648094479768,14.102120307784757,30.01659912629889,16,29.818486601114273" fill="#67DDE0" strokewidth="0"/>
</g>
<g id="SVGRepo_tracerCarrier" stroke-linecap="round" stroke-linejoin="round"/>
<g id="SVGRepo_iconCarrier"> <title>settings</title> <desc>Created with Sketch Beta.</desc> <defs> </defs> <g id="Page-1" stroke="none" stroke-width="1" fill="none" fill-rule="evenodd" sketch:type="MSPage"> <g id="Icon-Set-Filled" sketch:type="MSLayerGroup" transform="translate(-103.000000, -362.000000)" fill="#f2b31f"> <path d="M118,382 C115.261,382 113.042,379.762 113.042,377 C113.042,374.238 115.261,372 118,372 C120.739,372 122.959,374.238 122.959,377 C122.959,379.762 120.739,382 118,382 L118,382 Z M132.008,380.536 L129.685,379.184 C129.815,378.474 129.901,377.749 129.901,377 C129.901,376.252 129.815,375.526 129.685,374.816 L132.008,373.464 C132.957,372.912 133.281,371.688 132.733,370.732 L130.75,367.268 C130.203,366.312 128.989,365.983 128.041,366.536 L125.694,367.901 C124.598,366.961 123.352,366.192 121.967,365.697 L121.967,364 C121.967,362.896 121.079,362 119.983,362 L116.017,362 C114.921,362 114.033,362.896 114.033,364 L114.033,365.697 C112.648,366.192 111.402,366.961 110.306,367.901 L107.959,366.536 C107.011,365.983 105.797,366.312 105.25,367.268 L103.267,370.732 C102.719,371.688 103.044,372.912 103.992,373.464 L106.315,374.816 C106.185,375.526 106.099,376.252 106.099,377 C106.099,377.749 106.185,378.474 106.315,379.184 L103.992,380.536 C103.044,381.088 102.719,382.312 103.267,383.268 L105.25,386.732 C105.797,387.688 107.011,388.017 107.959,387.464 L110.306,386.099 C111.402,387.039 112.648,387.809 114.033,388.303 L114.033,390 C114.033,391.104 114.921,392 116.017,392 L119.983,392 C121.079,392 121.967,391.104 121.967,390 L121.967,388.303 C123.352,387.809 124.598,387.039 125.694,386.099 L128.041,387.464 C128.989,388.017 130.203,387.688 130.75,386.732 L132.733,383.268 C133.281,382.312 132.957,381.088 132.008,380.536 L132.008,380.536 Z M118,374 C116.357,374 115.025,375.344 115.025,377 C115.025,378.657 116.357,380 118,380 C119.643,380 120.975,378.657 120.975,377 C120.975,375.344 119.643,374 118,374 L118,374 Z" id="settings" sketch:type="MSShapeGroup"> </path> </g> </g> </g>
</svg>